<svg width="23" height="27" viewBox="0 0 23 27" fill="none" xmlns="http://www.w3.org/2000/svg">
<path d="M11.5153 14.0156L4.53312 20.9978C4.05053 21.4804 3.27017 21.4804 2.79272 20.9978L1.63245 19.8375C1.14986 19.3549 1.14986 18.5746 1.63245 18.0971L6.58156 13.148L1.63245 8.1989C1.14986 7.71632 1.14986 6.93596 1.63245 6.4585L2.78758 5.28797C3.27017 4.80538 4.05053 4.80538 4.52799 5.28797L11.5101 12.2701C11.9979 12.7527 11.9979 13.5331 11.5153 14.0156ZM21.3724 12.2701L14.3903 5.28797C13.9077 4.80538 13.1273 4.80538 12.6499 5.28797L11.4896 6.44823C11.007 6.93082 11.007 7.71118 11.4896 8.18864L16.4387 13.1377L11.4896 18.0868C11.007 18.5694 11.007 19.3498 11.4896 19.8273L12.6499 20.9875C13.1324 21.4701 13.9128 21.4701 14.3903 20.9875L21.3724 14.0054C21.855 13.5331 21.855 12.7527 21.3724 12.2701Z" fill="#2F4858" fill-opacity="0.5"/>
</svg>
