<svg width="34" height="38" viewBox="0 0 34 38" fill="none" xmlns="http://www.w3.org/2000/svg">
<g clip-path="url(#clip0)">
<path d="M30.4628 2.35791H4.52329C3.58517 2.35791 2.68546 2.73058 2.02211 3.39393C1.35875 4.05729 0.986084 4.95699 0.986084 5.89512L0.986084 31.8347C0.986084 32.7728 1.35875 33.6725 2.02211 34.3358C2.68546 34.9992 3.58517 35.3719 4.52329 35.3719H14.6375V24.1479H9.99491V18.8649H14.6375V14.8384C14.6375 10.2584 17.3641 7.72857 21.5402 7.72857C23.5402 7.72857 25.6316 8.08524 25.6316 8.08524V12.5804H23.3272C21.0568 12.5804 20.3486 13.9894 20.3486 15.4345V18.8649H25.4171L24.6065 24.1479H20.3486V35.3719H30.4628C31.401 35.3719 32.3007 34.9992 32.964 34.3358C33.6274 33.6725 34 32.7728 34 31.8347V5.89512C34 4.95699 33.6274 4.05729 32.964 3.39393C32.3007 2.73058 31.401 2.35791 30.4628 2.35791Z" fill="#FBFBFB" fill-opacity="0.7"/>
</g>
<defs>
<clipPath id="clip0">
<rect width="33.014" height="37.7302" fill="white" transform="translate(0.986084)"/>
</clipPath>
</defs>
</svg>
