<svg width="164" height="146" viewBox="0 0 164 146" fill="none" xmlns="http://www.w3.org/2000/svg">
<g clip-path="url(#clip0)">
<path d="M77.1768 41.0854L92.6287 45.1569C93.1535 45.2797 93.623 45.5723 93.9644 45.9893C94.3057 46.4064 94.4998 46.9245 94.5164 47.4632C94.5164 48.7729 93.3519 49.8549 91.9197 49.8549H81.7836C80.6913 49.8517 79.6098 49.6391 78.5976 49.2285C77.1056 48.6021 75.3859 48.7444 74.2413 49.7979L68.8316 54.7806C68.5814 54.9996 68.3654 55.2549 68.191 55.5379C67.9676 55.9043 67.819 56.3112 67.7536 56.7352C67.6883 57.1593 67.7075 57.5921 67.8102 58.0087C67.9129 58.4253 68.097 58.8174 68.352 59.1625C68.6069 59.5076 68.9277 59.7989 69.2957 60.0194C72.2916 61.8174 75.6459 62.9352 79.1215 63.2937V68.3333C79.1215 70.8389 81.3508 72.8889 84.0671 72.8889H89.0127C91.7318 72.8889 93.9612 70.8389 93.9612 68.3333V63.3222C103.337 62.2972 110.43 54.4958 109.194 45.3847C108.297 38.8361 102.799 33.6257 95.9371 31.8035L80.4853 27.7319C79.9605 27.6092 79.4909 27.3166 79.1496 26.8996C78.8082 26.4825 78.6142 25.9644 78.5976 25.4257C78.5976 24.116 79.7621 23.034 81.1942 23.034H91.3303C92.4265 23.0357 93.512 23.2484 94.5278 23.6604C96.0169 24.2868 97.7394 24.1444 98.884 23.091L104.294 18.1083C104.536 17.894 104.744 17.6444 104.912 17.3681C105.137 17.0018 105.287 16.5946 105.354 16.1699C105.421 15.7452 105.403 15.3114 105.302 14.8936C105.2 14.4759 105.017 14.0824 104.762 13.736C104.507 13.3895 104.187 13.0969 103.818 12.8751C100.821 11.0772 97.4661 9.95945 93.9896 9.60083V4.55556C93.9896 2.05 91.7631 0 89.044 0H84.0984C81.3793 0 79.1528 2.05 79.1528 4.55556V9.56667C69.7883 10.5917 62.6816 18.3931 63.9173 27.5042C64.8113 34.0528 70.3264 39.2632 77.1768 41.0854ZM160.945 93.4174C157.585 90.3708 152.346 90.5701 148.816 93.4174L122.507 114.458C119.278 117.049 115.259 118.456 111.119 118.444H77.4444C76.2362 118.444 75.0775 117.964 74.2232 117.11C73.3688 116.256 72.8889 115.097 72.8889 113.889C72.8889 112.681 73.3688 111.522 74.2232 110.668C75.0775 109.813 76.2362 109.333 77.4444 109.333H99.7353C104.262 109.333 108.479 106.23 109.202 101.76C109.292 101.246 109.335 100.726 109.333 100.205C109.329 97.7917 108.367 95.4786 106.659 93.7736C104.951 92.0687 102.636 91.1111 100.222 91.1111H54.6667C46.9837 91.1131 39.535 93.7559 33.5687 98.5965L20.3292 109.333H4.55556C3.34735 109.333 2.18862 109.813 1.33429 110.668C0.479959 111.522 0 112.681 0 113.889L0 141.222C0 142.43 0.479959 143.589 1.33429 144.443C2.18862 145.298 3.34735 145.778 4.55556 145.778H106.136C110.275 145.781 114.291 144.375 117.525 141.792L160.583 107.34C161.619 106.512 162.462 105.467 163.052 104.279C163.642 103.092 163.966 101.789 164 100.463C164.035 99.1376 163.78 97.8201 163.253 96.6031C162.725 95.3861 161.939 94.2989 160.948 93.4174H160.945Z" fill="#2F4858" fill-opacity="0.2"/>
</g>
<defs>
<clipPath id="clip0">
<rect width="164" height="145.778" fill="white"/>
</clipPath>
</defs>
</svg>
