<svg width="31" height="36" viewBox="0 0 31 36" fill="none" xmlns="http://www.w3.org/2000/svg">
<g clip-path="url(#clip0)">
<path d="M15.4394 10.4382C11.1131 10.4382 7.62355 13.9278 7.62355 18.254C7.62355 22.5803 11.1131 26.0699 15.4394 26.0699C19.7657 26.0699 23.2553 22.5803 23.2553 18.254C23.2553 13.9278 19.7657 10.4382 15.4394 10.4382ZM15.4394 23.3354C12.6437 23.3354 10.3581 21.0566 10.3581 18.254C10.3581 15.4515 12.6369 13.1727 15.4394 13.1727C18.242 13.1727 20.5208 15.4515 20.5208 18.254C20.5208 21.0566 18.2352 23.3354 15.4394 23.3354ZM25.398 10.1184C25.398 11.132 24.5817 11.9415 23.575 11.9415C22.5615 11.9415 21.752 11.1252 21.752 10.1184C21.752 9.1117 22.5683 8.29542 23.575 8.29542C24.5817 8.29542 25.398 9.1117 25.398 10.1184ZM30.5746 11.9687C30.459 9.52665 29.9012 7.36351 28.1122 5.5813C26.3299 3.79909 24.1668 3.2413 21.7248 3.11886C19.2079 2.97601 11.6641 2.97601 9.14727 3.11886C6.71204 3.23449 4.5489 3.79229 2.75989 5.57449C0.970875 7.3567 0.419886 9.51984 0.297444 11.9619C0.154595 14.4787 0.154595 22.0225 0.297444 24.5394C0.413084 26.9814 0.970875 29.1446 2.75989 30.9268C4.5489 32.709 6.70523 33.2668 9.14727 33.3892C11.6641 33.5321 19.2079 33.5321 21.7248 33.3892C24.1668 33.2736 26.3299 32.7158 28.1122 30.9268C29.8944 29.1446 30.4522 26.9814 30.5746 24.5394C30.7174 22.0225 30.7174 14.4855 30.5746 11.9687ZM27.3231 27.2399C26.7925 28.5732 25.7654 29.6003 24.4253 30.1377C22.4186 30.9336 17.657 30.7499 15.4394 30.7499C13.2219 30.7499 8.45343 30.9268 6.45355 30.1377C5.12029 29.6071 4.09314 28.58 3.55576 27.2399C2.75989 25.2332 2.94355 20.4716 2.94355 18.254C2.94355 16.0365 2.76669 11.268 3.55576 9.26816C4.08634 7.9349 5.11349 6.90775 6.45355 6.37037C8.46023 5.57449 13.2219 5.75816 15.4394 5.75816C17.657 5.75816 22.4254 5.5813 24.4253 6.37037C25.7585 6.90095 26.7857 7.9281 27.3231 9.26816C28.119 11.2748 27.9353 16.0365 27.9353 18.254C27.9353 20.4716 28.119 25.24 27.3231 27.2399Z" fill="#FBFBFB" fill-opacity="0.7"/>
</g>
<defs>
<clipPath id="clip0">
<rect width="30.4744" height="34.8279" fill="white" transform="translate(0.195312 0.84668)"/>
</clipPath>
</defs>
</svg>
