<svg width="28" height="33" viewBox="0 0 28 33" fill="none" xmlns="http://www.w3.org/2000/svg">
<g clip-path="url(#clip0)">
<path d="M25.9395 2.77637H1.98911C0.891671 2.77637 0 3.68051 0 4.79042V28.6972C0 29.8071 0.891671 30.7113 1.98911 30.7113H25.9395C27.037 30.7113 27.9349 29.8071 27.9349 28.6972V4.79042C27.9349 3.68051 27.037 2.77637 25.9395 2.77637ZM8.44282 26.7206H4.30247V13.3891H8.44905V26.7206H8.44282ZM6.37264 11.5684C5.04449 11.5684 3.97199 10.4896 3.97199 9.16772C3.97199 7.8458 5.04449 6.76706 6.37264 6.76706C7.69456 6.76706 8.7733 7.8458 8.7733 9.16772C8.7733 10.4959 7.7008 11.5684 6.37264 11.5684ZM23.9629 26.7206H19.8225V20.2357C19.8225 18.6893 19.7914 16.7002 17.6713 16.7002C15.5138 16.7002 15.1834 18.3837 15.1834 20.1234V26.7206H11.043V13.3891H15.015V15.2099H15.0711C15.6261 14.1623 16.9792 13.0586 18.9932 13.0586C23.1835 13.0586 23.9629 15.821 23.9629 19.4126V26.7206Z" fill="#FBFBFB" fill-opacity="0.7"/>
</g>
<defs>
<clipPath id="clip0">
<rect width="27.9349" height="31.9256" fill="white" transform="translate(0 0.78125)"/>
</clipPath>
</defs>
</svg>
