<svg width="824" height="412" viewBox="0 0 824 412" fill="none" xmlns="http://www.w3.org/2000/svg">
<path d="M313.828 2.51061C310.674 2.70374 307.455 3.21874 306.747 3.60499C306.039 3.99124 300.953 4.50624 295.481 4.69936C286.404 5.02124 271.147 6.75936 270.375 7.59624C270.182 7.72499 270.439 8.04686 270.89 8.17561C271.727 8.49749 271.984 10.3 271.212 10.3C270.89 10.3644 267.542 10.7506 263.68 11.2012C256.212 12.1669 254.603 13.0037 256.792 14.8706C257.951 15.8362 259.882 16.2869 269.281 17.9606C275.654 19.1194 278.357 22.145 275.847 25.4925C274.431 27.4237 274.688 28.0675 277.327 28.7756L279.709 29.4194L277.006 29.9344C274.817 30.3206 274.237 30.7069 274.237 31.7369C274.237 32.8312 274.559 32.96 276.426 32.6381C278.229 32.3806 278.615 32.445 278.293 33.2175C278.1 33.7325 277.327 34.1187 276.491 34.1187C275.589 34.1187 274.366 34.9556 273.336 36.3075C271.791 38.3031 271.662 39.0756 271.662 44.29C271.662 50.7275 273.079 56.5212 274.752 57.0362C275.332 57.2294 277.07 57.9375 278.551 58.6456C282.284 60.5125 284.602 59.8687 287.306 56.3925C288.464 54.8475 291.232 51.6287 293.421 49.2469L297.412 44.8694L303.721 43.4531C308.292 42.4231 310.996 41.3931 313.506 39.7194C316.918 37.4662 331.402 32.5094 335.716 32.0587C337.518 31.8656 337.647 31.6725 337.84 29.1619C338.033 26.265 339.385 24.72 343.827 22.3381C345.372 21.4369 345.694 20.9862 345.114 20.6C343.956 19.9562 344.728 16.7375 346.016 16.7375C347.496 16.7375 347.754 15.5787 346.659 13.5831C345.565 11.3944 345.694 11.2656 350.2 9.91374C351.938 9.39874 355.221 8.11124 357.41 7.01686L361.466 5.08561L356.959 5.47186C354.513 5.66499 351.809 5.98686 351.037 6.17999C350.264 6.30874 349.427 6.05124 349.106 5.53624C348.848 5.08561 345.887 4.05561 342.604 3.28311C336.359 1.86686 327.604 1.67374 313.828 2.51061Z" fill="#2F4858"/>
<path d="M251.706 3.92679C246.428 4.89242 229.819 6.43742 228.853 6.05117C228.274 5.79367 226.665 6.43742 225.184 7.46742C223.381 8.75492 222.416 9.07679 222.287 8.49742C221.708 6.88804 220.806 7.78929 220.806 9.91367C220.806 12.7462 222.738 14.2912 225.506 13.7118C229.24 12.9393 226.665 14.7418 222.03 16.0937C217.974 17.3168 217.33 17.3812 216.429 16.4799C215.785 15.9649 214.176 15.4499 212.76 15.3212C210.378 15.128 210.185 15.2568 209.863 17.0593C209.605 18.6687 209.219 18.9905 207.61 18.9905C206.193 18.9905 205.743 18.733 205.871 17.8962C206.065 16.673 205.743 16.4155 202.975 15.8362C201.108 15.3855 200.85 15.5787 199.885 17.3812C199.305 18.5399 198.919 19.5699 199.112 19.6987C199.241 19.8918 201.945 20.278 205.099 20.6643L210.828 21.308L212.18 19.5699C213.532 17.8962 215.27 17.8962 214.626 19.5055C214.111 20.9218 221.643 22.0162 226.15 21.308C228.21 20.9218 230.72 20.793 231.621 20.9862C233.488 21.3724 236.321 19.763 235.42 18.8618C235.098 18.6043 232.008 18.3468 228.531 18.3468C222.287 18.3468 222.223 18.3468 223.961 17.188C225.313 16.2224 226.729 16.0937 231.428 16.2224C234.647 16.2868 237.544 16.158 237.995 15.9005C238.381 15.643 239.153 15.643 239.733 15.8362C240.248 16.0293 243.531 14.8705 247.007 13.1968C253.316 10.1712 258.466 8.49742 266.835 6.75929C278.036 4.50617 279.388 4.18429 279.388 3.86242C279.388 3.28304 254.796 3.34742 251.706 3.92679Z" fill="#2F4858"/>
<path d="M213.918 10.3C212.631 10.815 212.566 11.0725 213.146 12.4887C213.854 13.9693 215.85 15.0637 216.558 14.2912C216.751 14.0981 216.944 13.0037 216.944 11.7806C216.944 9.52747 216.429 9.26997 213.918 10.3Z" fill="#2F4858"/>
<path d="M188.426 11.3299C187.396 11.8449 186.044 12.8749 185.336 13.583C184.113 14.8062 184.113 14.8062 185.786 14.8062C187.846 14.8062 191.966 12.3599 191.644 11.3943C191.323 10.2999 190.357 10.2999 188.426 11.3299Z" fill="#2F4858"/>
<path d="M201.944 10.7506C200.979 11.7162 201.687 12.2312 205.034 13.1968C207.674 13.9693 208.833 14.0981 209.863 13.5187C211.665 12.5531 211.086 11.9093 207.674 11.0081C204.391 10.1712 202.524 10.1068 201.944 10.7506Z" fill="#2F4858"/>
<path d="M170.594 14.935C167.955 15.6431 164.671 16.3512 163.384 16.5444C160.423 16.9306 160.809 18.025 163.899 18.025C165.251 18.025 166.603 18.54 167.375 19.3125C168.083 20.0206 169.242 20.6 169.886 20.6C170.594 20.6 172.01 21.115 173.04 21.6944C174.907 22.7887 175.165 22.7887 178.126 21.6944C179.8 21.115 182.89 20.6 184.885 20.6C187.525 20.6 188.812 20.2781 189.649 19.4412C190.743 18.4112 190.743 18.3469 189.649 18.1537C189.005 18.025 188.683 17.51 188.876 16.995C189.391 15.7075 187.782 15.9006 185.078 17.4456C182.696 18.8619 181.795 18.8619 177.418 17.1881C176.001 16.6731 175.229 16.0937 175.68 15.8362C176.452 15.3212 176.645 13.5187 175.937 13.5831C175.615 13.5831 173.233 14.2269 170.594 14.935Z" fill="#2F4858"/>
<path d="M561.35 14.7419C560.449 14.9994 559.741 15.5144 559.741 15.965C559.741 17.3812 557.938 18.025 553.883 18.025C549.763 18.025 539.849 19.6344 538.175 20.6C537.338 21.115 537.338 21.2437 538.368 21.5656C540.75 22.5312 539.205 23.175 534.506 23.175L529.484 23.2394L531.738 25.1062C532.961 26.2006 534.699 27.0375 535.6 27.0375C537.081 27.1019 537.081 27.1662 535.986 27.81C535.085 28.325 534.248 28.2606 532.574 27.4237C530.45 26.3937 525.879 26.0075 525.107 26.78C524.399 27.5525 525.429 28.9687 526.781 28.9687C527.746 28.9687 527.939 29.1619 527.424 29.6769C526.201 30.9 524.077 29.6125 522.725 26.9731C522.017 25.5569 520.923 24.4625 520.343 24.4625C519.442 24.4625 519.506 24.72 520.729 26.0075C521.953 27.295 522.017 27.5525 521.18 27.8744C519.699 28.4537 519.957 29.87 521.631 30.5781C522.403 30.9644 523.111 31.8656 523.24 32.6381C523.562 34.8912 524.978 35.6637 527.36 34.8269C528.712 34.3119 529.613 34.3119 530.064 34.7625C530.708 35.4062 529.871 35.6637 528.068 35.4706C526.909 35.3419 526.394 36.6294 527.167 37.595C528.454 39.14 526.716 41.8437 524.528 41.8437C522.596 41.8437 522.081 40.9425 523.691 40.2987C525.107 39.7837 524.914 36.5006 523.369 35.535C522.661 35.1487 521.566 33.6681 520.858 32.2519C520.15 30.9 519.12 29.6125 518.541 29.4194C518.026 29.1619 517.575 28.2606 517.575 27.3594C517.575 26.2006 517.253 25.75 516.352 25.75C515.644 25.75 514.614 25.2994 514.099 24.72C512.554 23.175 510.623 24.1406 510.108 26.7156C509.914 27.8744 509.271 29.0331 508.756 29.2906C507.854 29.6125 507.854 29.7412 508.691 30.7712C509.206 31.3506 509.85 32.3162 510.043 32.96C510.236 33.5394 511.331 34.1831 512.425 34.4406C514.228 34.8269 515.644 36.3075 514.871 37.0156C514.743 37.1444 512.425 36.565 509.786 35.6637C507.211 34.7625 503.413 33.8612 501.481 33.6681C499.55 33.475 497.297 32.8956 496.524 32.445C495.752 31.93 494.658 31.5437 494.078 31.5437C492.276 31.5437 493.113 32.6381 495.752 33.6681C498.134 34.5694 498.327 34.8912 497.619 35.7281C496.846 36.6937 496.653 36.6294 496.074 35.4706C495.494 34.4406 495.108 34.3119 494.078 34.8912C493.37 35.3419 491.825 35.8569 490.538 36.1144C489.314 36.3075 487.769 36.7581 487.19 37.0156C486.353 37.3375 486.031 37.1444 486.031 36.4362C486.031 35.8569 485.581 35.4062 485.001 35.4062C483.392 35.4062 475.474 38.6894 474.701 39.655C473.929 40.6206 471.74 40.8781 471.032 40.1056C470.774 39.9125 470.903 39.3331 471.289 38.8181C472.448 37.4662 470.774 36.05 468.006 36.05H465.56L467.105 39.0112C468.843 42.3587 468.714 43.0025 466.526 42.0369C465.367 41.5219 464.723 41.5862 463.564 42.5519C462.728 43.26 461.633 43.775 461.118 43.775C460.474 43.775 460.346 44.1612 460.603 44.9981C460.989 46.35 459.959 47.4444 459.316 46.35C458.801 45.5131 453.844 45.5131 453.844 46.35C453.844 46.6719 454.552 47.1225 455.453 47.38C456.354 47.5731 457.063 48.0881 457.063 48.41C457.063 49.2469 454.101 48.5387 451.591 47.0581C450.496 46.4144 449.659 45.4487 449.659 44.6762C449.659 44.0325 449.08 43.1312 448.372 42.6806C447.149 41.9081 447.149 41.9081 448.694 41.9081C449.595 41.9081 451.913 42.1656 453.844 42.4231C458.35 43.1312 462.213 41.8437 462.213 39.655C462.213 38.3675 461.698 38.0456 458.543 37.4019C456.483 36.9512 451.655 35.7281 447.857 34.6981C443.994 33.6037 440.454 32.8956 439.874 33.0887C439.231 33.3462 439.038 33.1531 439.359 32.2519C439.681 31.2219 439.231 30.9 436.656 30.385C434.531 29.9344 433.308 29.9344 432.793 30.385C432.278 30.7712 430.798 30.9 429.188 30.7069C426.098 30.2562 418.759 31.93 411.549 34.6337C407.108 36.3075 405.691 37.3375 407.816 37.3375C408.331 37.3375 408.781 37.595 408.781 37.9812C408.781 38.625 405.498 41.8437 404.854 41.8437C404.275 41.8437 401.7 46.2212 401.7 47.1225C401.7 48.6675 399.64 50.2125 398.481 49.5687C395.198 47.8306 388.181 52.8519 388.181 57.0362C388.181 58.2594 388.568 59.4181 389.018 59.6112C389.533 59.8044 389.791 60.6412 389.598 61.7356C389.404 63.2806 389.662 63.6669 391.593 64.5681C394.49 65.9844 394.426 65.9844 397.773 63.7312C400.992 61.5425 401.7 61.3494 401.7 62.7656C401.7 63.345 402.408 64.89 403.309 66.2419C404.983 68.6881 404.919 70.8125 403.309 70.8125C402.859 70.8125 402.022 71.0056 401.507 71.1987C400.734 71.4562 400.606 71.1987 400.863 70.2975C400.992 69.5894 400.863 68.8169 400.477 68.6237C400.155 68.3662 399.962 67.7869 400.219 67.2719C400.799 65.6625 397.966 66.1131 396.228 67.9156C394.361 69.7181 394.233 71.3919 395.649 74.16C396.872 76.6062 396.357 77.25 392.623 77.7006C388.439 78.2156 386.379 79.5031 386.121 81.5631C385.993 83.0437 385.284 83.6875 382.516 84.975C380.714 85.8762 378.976 87.0994 378.783 87.7431C378.589 88.3869 377.495 89.2881 376.401 89.7387C374.663 90.4469 374.083 90.4469 372.603 89.6744C370.607 88.7087 370.543 88.7731 371.379 90.9619C371.959 92.5069 371.959 92.5712 369.513 92.2494C366.68 91.8631 363.719 92.4425 363.719 93.3437C363.719 93.6656 365.071 94.6956 366.809 95.5325C370.671 97.4637 372.345 100.554 371.701 104.674C371.444 106.541 370.929 107.571 370.156 107.828C368.483 108.343 358.376 108.021 357.088 107.377C356.316 106.991 355.221 107.056 353.998 107.635C352.131 108.472 352.067 108.601 352.453 111.691C352.711 114.008 352.518 115.875 351.552 118.45C350.715 120.832 350.522 122.312 350.908 123.085C351.23 123.664 351.488 124.952 351.488 125.853C351.488 127.462 351.616 127.527 353.998 127.141C356.316 126.754 356.573 126.883 357.732 128.879C358.891 130.874 358.955 131.132 357.925 133.385C357.281 134.93 355.543 136.732 353.354 138.342C349.428 141.174 348.269 143.041 348.269 146.711C348.269 148.835 347.818 149.607 345.05 152.182C343.312 153.792 341.316 155.144 340.608 155.144C339.9 155.144 338.934 155.787 338.548 156.56C338.098 157.397 336.81 159.135 335.587 160.487C334.364 161.839 333.527 163.384 333.72 163.834C333.849 164.285 333.205 165.444 332.175 166.409C331.209 167.375 330.179 169.113 329.986 170.272C329.729 171.431 329.149 172.718 328.634 173.169C327.411 174.199 327.411 177.031 328.57 178.705C329.214 179.542 329.278 180.186 328.828 180.701C328.441 181.216 328.441 181.859 328.892 182.761C329.278 183.469 329.6 184.821 329.6 185.851C329.536 188.232 327.347 194.606 326.446 194.927C325.351 195.314 325.609 196.794 326.768 197.245C327.54 197.567 327.733 198.146 327.411 199.82C326.896 202.652 327.926 205.227 329.858 205.936C332.046 206.772 335.78 211.601 336.746 214.884C337.583 217.845 338.419 218.617 346.788 224.54L351.423 227.823L354.191 226.6C357.217 225.248 363.654 224.862 365.65 225.956C366.616 226.471 367.968 226.149 371.701 224.347C380.263 220.291 384.834 220.742 387.151 225.827L388.246 228.338L391.658 228.016C394.168 227.823 395.52 228.016 396.808 228.853C398.288 229.819 398.481 230.398 398.481 233.746C398.481 235.934 397.966 238.831 397.258 240.634L395.971 243.788L399.576 249.196C403.889 255.569 408.395 266.126 407.558 267.736C407.172 268.379 407.301 269.538 407.88 270.954C409.168 274.044 408.974 276.619 407.108 280.997C402.859 291.039 403.052 294.129 408.395 305.459C411.678 312.476 412 313.571 412 317.562C412 321.36 412.322 322.519 414.446 326.574C419.532 336.488 421.27 341.187 419.725 341.187C418.888 341.187 421.785 346.788 422.879 347.303C423.33 347.496 425.648 347.174 427.901 346.595C430.218 346.016 432.922 345.758 434.016 345.951C435.175 346.144 436.656 345.951 437.75 345.372C438.78 344.857 440.454 344.406 441.484 344.406C443.415 344.406 446.119 341.831 454.23 332.432C458.479 327.476 458.479 327.476 458.929 323.227C459.316 319.751 459.444 319.557 462.663 317.497C465.496 315.631 466.075 314.922 466.397 312.798C466.654 311.382 466.461 308.356 466.011 306.103L465.174 301.919L469.036 298.378C471.096 296.447 474.122 294.129 475.731 293.292C480.302 290.846 480.753 290.074 481.268 283.572C481.654 278.229 481.525 277.134 479.594 270.504C476.89 260.847 476.89 258.852 479.401 253.444C481.654 248.681 490.216 238.316 494.786 234.904C497.619 232.78 504.378 222.544 507.661 215.399C510.429 209.347 510.429 202.331 507.726 204.648C507.275 204.97 505.151 205.549 503.091 205.936C500.966 206.257 497.554 207.094 495.559 207.802L491.889 209.026L490.216 207.287C489.25 206.257 488.735 205.163 488.928 204.584C489.379 203.425 483.714 196.472 479.465 192.996C477.341 191.258 476.375 189.842 475.731 187.717C475.281 186.172 474.251 184.177 473.414 183.404C472.319 182.374 471.869 181.28 471.869 179.606C471.869 177.932 470.903 175.551 468.714 171.752C466.976 168.727 464.53 163.899 463.307 161.066C461.054 155.916 461.054 155.852 462.406 155.401C464.079 154.886 466.783 157.847 470.646 164.285C471.998 166.667 473.414 168.791 473.736 168.984C474.122 169.177 474.701 170.916 475.088 172.847C475.667 175.679 476.375 176.902 478.371 178.769C479.723 180.057 481.01 181.666 481.268 182.439C481.461 183.211 482.491 184.627 483.456 185.722C486.611 189.134 487.512 192.095 484.615 189.456C483.649 188.554 483.456 188.554 483.456 189.391C483.456 189.906 484.036 190.872 484.744 191.516C485.388 192.095 486.611 194.541 487.383 196.923C488.156 199.241 489.121 201.365 489.508 201.622C490.473 202.331 493.949 201.558 494.786 200.464C495.173 199.949 496.396 199.562 497.554 199.562C499.357 199.562 500.644 199.112 503.413 197.502C503.928 197.181 506.181 196.086 508.305 194.992C510.494 193.962 512.425 192.546 512.554 191.966C512.747 191.258 514.228 190.421 516.481 189.713C518.863 188.941 520.214 188.168 520.472 187.331C520.729 186.623 521.244 186.044 521.759 186.044C523.176 186.044 526.588 182.181 526.588 180.572C526.588 179.606 527.038 178.962 527.939 178.769C528.712 178.576 529.098 178.126 528.841 177.739C528.648 177.353 529.034 176.194 529.742 175.164C530.514 174.134 531.094 172.976 531.094 172.589C531.094 171.431 527.038 168.083 525.622 168.019C523.24 167.954 521.438 165.637 521.438 162.611C521.438 160.358 520.858 160.487 517.897 163.512C515.451 166.023 511.202 167.89 509.85 167.053C509.464 166.86 509.206 165.83 509.206 164.864C509.206 163.899 508.627 162.547 507.919 161.903C506.76 160.873 506.631 160.873 506.245 161.839C505.666 163.319 504.764 162.547 503.413 159.392C502.769 157.976 501.546 156.045 500.58 155.208C498.52 153.277 498.327 150.38 500.129 149.35C502.64 147.998 503.799 148.577 506.052 152.311C507.79 155.208 509.013 156.431 512.039 158.041C515.901 160.165 517.318 160.229 519.764 158.62C521.051 157.719 523.755 158.556 523.047 159.65C521.759 161.774 528.648 163.448 540.428 163.899L548.153 164.221L550.728 166.667C552.144 168.083 554.333 169.692 555.556 170.336C556.779 170.916 557.423 171.559 557.037 171.688C555.621 172.203 556.136 173.619 558.453 175.679C560.449 177.417 560.899 177.546 562.316 176.902C563.217 176.516 563.925 175.679 563.925 175.036C563.925 174.392 564.183 173.748 564.504 173.555C565.148 173.104 565.856 175.293 565.856 178.061C565.856 181.409 569.397 192.417 573.517 201.751C575.641 206.644 577.701 211.729 578.088 213.146C579.053 216.622 580.984 217.137 583.238 214.369C584.718 212.566 585.104 212.373 586.199 213.081C587.229 213.725 587.486 214.626 587.486 217.459C587.551 220.098 587.873 221.257 588.709 221.901C589.739 222.609 590.061 222.544 591.027 221.707C591.671 221.128 592.443 219.841 592.829 218.875C593.344 217.266 593.151 216.622 591.606 214.497C589.353 211.407 588.388 210.699 587.744 211.794C587.164 212.759 585.813 212.116 585.813 210.828C585.813 210.377 586.199 209.862 586.714 209.669C587.486 209.347 587.615 207.674 587.551 201.107L587.422 192.932L589.16 192.352C590.126 192.031 591.091 191.258 591.284 190.614C591.478 189.971 593.216 188.168 595.083 186.494C597.014 184.821 598.816 182.889 599.009 182.181C599.267 181.473 600.297 180.443 601.327 179.928C602.614 179.22 603.194 178.447 603.194 177.417C603.194 175.229 604.288 174.649 608.666 174.585C611.691 174.585 612.721 174.263 613.558 173.233C614.781 171.752 615.554 172.267 616.391 175.1C617.163 177.804 619.867 180.894 620.961 180.443C621.798 180.121 621.927 180.314 621.541 181.473C621.219 182.567 621.541 183.211 622.764 184.177C624.18 185.336 624.438 185.979 624.438 189.005C624.438 192.159 624.566 192.481 626.111 192.867C627.206 193.189 628.171 192.932 629.137 192.031C632.871 188.812 632.549 188.619 634.673 195.507C637.184 203.682 638.021 207.416 637.441 208.253C637.184 208.575 636.991 210.764 636.991 213.081C636.991 216.686 637.119 217.266 638.085 217.072C639.823 216.815 644.394 224.347 643.943 226.729C643.493 229.046 646.132 233.037 649.286 234.711C650.509 235.419 651.99 236.578 652.505 237.351C654.758 240.827 655.531 237.801 653.406 233.681C652.698 232.265 652.119 230.141 652.119 228.917C652.119 226.407 648.643 221.772 644.78 219.132C643.235 218.038 642.463 217.072 642.463 215.978C642.463 215.141 641.69 213.532 640.789 212.437L639.051 210.442L640.081 206.772C640.66 204.777 641.239 202.395 641.304 201.494C641.561 199.176 643.493 199.369 643.299 201.687C643.171 203.232 643.364 203.425 644.523 203.103C645.488 202.781 646.518 203.361 648.643 205.485C650.188 206.966 651.475 208.575 651.475 209.026C651.475 209.412 652.119 209.862 652.956 209.991C654.05 210.12 654.372 210.635 654.501 212.309C654.565 213.532 654.694 214.562 654.823 214.755C655.338 215.206 659.844 211.086 659.844 210.12C659.844 209.669 660.552 209.09 661.389 208.832C662.226 208.639 663.706 207.609 664.672 206.644C666.281 204.906 666.41 204.455 666.088 201.301C665.638 196.601 664.672 194.927 658.878 188.619C655.724 185.207 654.05 182.825 654.05 181.859C654.05 179.542 659.007 175.1 661.582 175.1C663.32 175.1 663.642 175.357 663.835 176.838C664.093 179.156 666.281 179.735 666.281 177.546C666.281 175.937 668.921 174.263 670.53 174.907C671.045 175.1 671.946 174.842 672.59 174.392C673.556 173.555 675.873 172.396 679.478 170.851C682.504 169.564 686.753 163.899 688.426 159.006C690.422 153.084 691.323 146.711 690.036 147.869C688.877 149.028 687.268 148.899 687.783 147.741C687.976 147.226 688.362 146.324 688.555 145.809C688.813 145.166 688.555 144.844 687.847 144.844C687.139 144.844 686.881 144.522 687.139 143.878C687.589 142.655 682.439 136.604 679.221 134.479L677.676 133.514L679.736 130.488C681.023 128.621 682.246 127.462 683.019 127.462C683.727 127.462 684.306 127.076 684.306 126.561C684.306 125.274 679.349 124.952 677.161 126.111C675.616 126.883 675.358 126.819 673.813 125.274C672.912 124.372 671.689 123.6 671.109 123.6C669.5 123.6 670.015 122.57 673.363 119.094C676.453 115.875 678.319 115.36 677.676 117.871C677.354 119.158 678.513 122.312 679.285 122.312C679.543 122.312 680.058 121.797 680.379 121.089C681.216 119.544 683.727 118.901 685.851 119.737C687.203 120.252 687.525 120.767 687.525 122.57C687.525 124.694 687.654 124.759 690.744 125.531C693.576 126.175 693.963 126.497 693.576 127.591C693.319 128.428 693.576 129.136 694.349 129.651C695.057 130.166 695.443 131.325 695.443 132.677C695.443 136.024 696.216 136.604 698.984 135.445C700.271 134.93 701.816 134.029 702.396 133.514C703.426 132.548 703.426 132.291 702.138 129.265C701.108 126.754 700.078 125.531 697.117 123.536C695.057 122.184 693.254 120.767 693.061 120.51C692.868 120.188 693.448 119.222 694.284 118.45C695.443 117.356 695.894 116.261 695.894 114.459C695.894 111.755 697.889 109.051 699.499 109.695C700.014 109.888 700.786 110.274 701.301 110.467C702.846 111.047 705.421 108.021 706.451 104.159C707.031 102.163 707.481 98.5581 707.481 96.1119C707.481 92.0562 707.224 91.155 704.713 86.52C700.593 78.9237 700.336 78.6019 697.246 77.1856C693.898 75.705 692.289 75.6406 691.774 76.9281C691.194 78.4731 690.486 78.0869 688.877 75.4475C687.461 73.13 687.461 73.13 687.847 74.9969C688.233 76.7994 688.233 76.8637 687.01 75.7694C686.366 75.19 685.336 74.675 684.757 74.675C683.083 74.675 682.826 73.5162 684.178 71.7781C684.886 70.8769 685.658 69.0744 685.851 67.7869C686.753 62.83 687.332 61.9931 690.551 61.5425C695.701 60.8344 706.838 61.0919 706.838 61.8644C706.838 62.3794 707.932 62.5081 710.443 62.2506C713.983 61.8644 715.593 61.2206 714.176 60.7056C711.794 59.8687 711.344 58.9675 712.116 56.4569C712.76 54.2681 713.082 54.075 715.142 54.075C716.816 54.075 717.974 54.59 719.519 56.135L721.644 58.195L723.189 56.7144C724.476 55.4912 724.669 55.0406 724.026 54.0106C723.253 52.7231 723.704 51.7575 724.798 52.4656C725.184 52.6587 725.957 53.6887 726.472 54.7187C727.309 56.3281 727.309 56.8431 726.472 59.225C725.957 60.77 725.506 62.5081 725.506 63.1519C725.506 63.7956 724.991 64.6969 724.348 65.0831C723.253 65.7912 723.189 66.0487 724.026 68.495C724.605 70.04 726.021 71.9712 727.631 73.3875C729.111 74.6106 732.716 77.8937 735.678 80.6619C738.639 83.43 741.278 85.49 741.664 85.2969C742.501 84.7175 742.373 81.3056 741.471 80.7262C740.956 80.4044 741.149 80.0181 741.922 79.4387C743.016 78.6019 743.016 78.4731 742.051 77.3787C740.828 76.0912 741.6 74.16 742.952 75.0612C743.467 75.3187 743.081 74.6106 742.115 73.4519C740.119 71.1344 739.798 70.04 741.278 70.555C743.274 71.3275 742.179 69.7181 739.991 68.6881C738.768 68.1087 737.738 67.2075 737.738 66.6281C737.738 66.1131 736.965 65.5337 735.999 65.2762C732.845 64.6325 732.523 64.375 732.716 63.2162C732.845 62.5081 732.523 61.5425 732.073 61.0275C731.429 60.1906 731.558 59.9331 733.296 59.225C734.905 58.5169 735.549 58.5169 736.579 59.1606C737.673 59.8044 738.059 59.74 739.089 58.8387C740.248 57.8087 740.506 57.8087 742.888 58.7744C744.626 59.4181 745.463 59.5469 745.463 59.0319C745.463 57.5512 748.874 53.4956 750.741 52.7231C752.222 52.1437 753.188 52.0794 754.539 52.5944C757.758 53.8175 757.308 52.2081 754.024 50.8562C752.351 50.1481 750.033 49.0537 748.874 48.4744C746.879 47.4444 746.879 47.38 748.102 46.4787C748.874 45.9637 749.261 45.1912 749.068 44.6119C748.746 43.775 749.196 43.7106 752.029 44.0969C753.896 44.3544 756.342 45.1269 757.501 45.7706C759.883 47.2512 766.063 48.2169 766.063 47.1225C766.063 46.7362 765.548 46.0925 764.968 45.7706C763.938 45.1912 763.938 44.9981 764.775 44.4187C766.384 43.3244 764.131 42.1656 758.853 41.2644C756.278 40.8781 748.681 39.0756 741.922 37.3375C735.227 35.5994 726.086 33.7325 721.644 33.1531C717.202 32.5737 713.082 31.9944 712.374 31.8656C711.408 31.6725 711.537 31.9944 713.018 33.5394L714.884 35.535L713.275 35.1487C706.709 33.7969 704.005 33.475 697.889 33.475C691.903 33.475 690.808 33.2819 689.843 32.2519C688.362 30.6425 686.881 30.385 675.616 29.6769C670.079 29.2906 664.994 28.6469 663.706 28.1319C661.196 27.1019 643.943 25.3637 643.235 26.0719C642.978 26.265 643.493 27.0375 644.394 27.7456L646.003 29.0975L640.016 28.6469C636.733 28.4537 633.643 28.1319 633.128 27.9387C632.42 27.6169 632.163 28.0031 632.163 29.2262C632.163 30.1275 632.034 30.9 631.905 30.9C630.875 30.9 625.081 27.8744 623.794 26.6512C622.184 25.1706 614.91 23.175 611.112 23.175C609.76 23.175 609.567 23.3037 610.275 24.1406C610.983 24.9775 610.468 25.1062 606.541 25.1062C604.031 25.1062 601.778 24.7844 601.584 24.4625C601.391 24.0762 599.138 23.8187 596.628 23.8187C593.151 23.8187 591.735 23.4969 590.319 22.5312C588.516 21.2437 587.1 21.3081 585.169 22.8531C584.203 23.6256 580.019 24.72 580.019 24.1406C580.019 24.0119 581.499 23.1106 583.238 22.145C586.392 20.4069 586.907 19.6987 585.941 18.3469C585.169 17.2525 579.568 16.0937 574.933 16.0937C571.586 16.0937 570.427 15.8362 570.105 15.1281C569.719 14.0981 564.504 13.8406 561.35 14.7419ZM430.669 44.6119C430.669 44.9981 428.931 46.5431 426.806 47.9594L423.008 50.5344L423.073 54.2037C423.137 59.74 423.974 60.3194 431.119 59.225C439.359 58.0019 441.355 58.195 439.746 60.1262C439.231 60.77 437.75 61.0275 434.982 61.0275C432.793 60.9631 430.283 61.285 429.446 61.8L427.836 62.6369L429.317 63.7956C430.411 64.6969 430.733 65.405 430.411 66.6281C429.961 68.495 429.253 68.6881 428.094 67.2719C427.643 66.7569 426.806 66.3062 426.163 66.3062C424.231 66.3062 423.394 67.98 423.845 70.8125C424.231 73.2587 424.167 73.3875 421.721 74.675C419.21 75.8981 419.146 75.8981 418.309 74.7394C417.472 73.5162 417.343 73.5806 413.931 75.0612C409.747 76.8637 408.395 76.9281 407.623 75.5762C407.108 74.6106 406.85 74.6106 404.983 75.6406C402.473 76.9281 401.829 76.6062 403.631 74.9969C404.339 74.3531 404.919 73.4519 404.919 73.0012C404.919 72.0356 408.459 72.4219 409.94 73.5806C410.455 73.9669 410.713 73.9669 410.713 73.5162C410.713 73.13 410.391 72.615 410.069 72.4219C409.039 71.7781 410.004 70.8125 411.743 70.8125C413.481 70.8125 414.704 68.6237 414.189 66.5637C413.867 65.0831 414.318 64.375 417.021 62.5081C418.116 61.7356 419.081 60.8987 419.081 60.6412C419.081 60.3837 418.18 59.6756 417.15 59.0962C413.288 56.9075 415.476 51.4356 421.206 49.0537C422.171 48.6675 422.944 47.9594 422.944 47.4444C422.944 46.9937 423.394 45.9637 423.974 45.1912C424.746 44.0969 425.583 43.775 427.836 43.775C429.703 43.775 430.669 44.0325 430.669 44.6119ZM466.654 99.4594C465.882 100.682 465.045 101.712 464.723 101.712C463.178 101.712 464.53 103.129 467.878 104.996C471.74 107.184 477.019 111.755 477.019 113.042C477.019 113.429 476.504 114.201 475.924 114.716C474.379 116.068 466.719 115.296 463.114 113.429C460.603 112.141 460.281 112.141 456.419 113.042C454.166 113.557 451.977 114.266 451.526 114.652C450.432 115.553 446.505 114.716 444.638 113.236C443.479 112.334 443.158 111.626 443.415 110.146C443.544 109.051 443.93 108.15 444.188 108.15C444.509 108.15 444.896 107.313 445.153 106.283C445.346 105.253 445.99 104.223 446.505 104.03C447.02 103.837 447.406 103.322 447.406 102.807C447.406 102.356 448.05 101.326 448.887 100.554C450.046 99.4594 450.818 99.2662 452.749 99.5881C455.131 99.9744 455.711 100.618 454.488 101.391C454.037 101.648 454.488 102.485 455.518 103.451C456.869 104.738 457.513 104.931 458.608 104.416C459.38 104.094 460.668 103.515 461.569 103.129C462.663 102.678 462.792 102.421 462.084 102.421C459.251 102.292 460.474 98.88 463.693 97.9144C467.749 96.7556 468.135 96.9487 466.654 99.4594ZM500.451 98.1719C502.769 99.1375 503.348 100.489 502.189 102.292C501.868 102.742 501.353 103 500.966 102.742C500.001 102.163 498.263 103 498.263 103.966C498.263 104.416 497.941 104.931 497.554 105.06C497.168 105.189 498.456 106.734 500.451 108.472C502.898 110.596 504.056 112.077 504.056 113.107C504.056 114.845 504.571 114.974 505.73 113.429C506.567 112.399 506.696 112.399 507.919 113.879C509.657 115.939 509.528 116.519 507.339 116.519C504.507 116.519 504.378 117.549 506.824 119.866C508.563 121.54 509.142 122.699 509.399 125.016L509.786 127.977L506.696 128.428C503.606 128.814 500.838 128.106 500.838 126.819C500.838 126.497 500.065 126.175 499.164 126.046C496.718 125.789 495.752 123.986 497.168 122.441C497.748 121.797 498.263 120.639 498.263 119.931C498.263 119.158 498.649 118.45 499.099 118.257C499.55 118.128 498.069 116.326 495.559 114.008C492.083 110.789 491.181 109.566 491.181 108.086C491.181 106.862 490.859 106.219 490.216 106.219C489.701 106.219 489.25 105.704 489.25 105.124C489.25 103.901 491.696 101.069 492.726 101.069C493.113 101.004 494.464 100.167 495.688 99.1375C496.911 98.0431 497.941 97.2062 498.005 97.2062C498.069 97.2062 499.164 97.6569 500.451 98.1719ZM412.901 107.764C413.996 108.601 416.699 110.339 418.953 111.691C422.622 113.815 422.944 114.201 422.944 116.261C422.944 119.222 424.424 122.055 426.613 123.085C427.708 123.6 428.544 124.694 428.866 125.982C429.188 127.141 429.703 128.106 429.961 128.106C430.283 128.106 430.991 128.299 431.57 128.492C432.278 128.75 432.6 128.557 432.6 127.849C432.6 127.334 433.308 126.368 434.209 125.789C436.269 124.437 436.205 124.051 433.888 121.669C432.858 120.574 431.956 119.287 431.956 118.772C431.956 117.613 432.729 117.549 433.759 118.579C434.274 119.094 434.789 118.965 435.69 117.806C437.557 115.489 439.231 116.519 440.518 120.896C442.321 126.626 443.093 128.106 444.445 128.106C445.089 128.106 446.763 128.75 448.179 129.522C450.561 130.874 450.754 130.874 451.333 129.844C452.106 128.492 453.844 128.428 455.518 129.716C456.161 130.231 457.32 130.617 458.028 130.617C458.736 130.617 459.895 130.231 460.539 129.716C461.247 129.201 462.599 128.75 463.629 128.75C465.174 128.75 465.431 129.007 465.56 130.488C465.753 134.093 465.303 136.217 463.693 139.887C461.504 144.779 460.474 145.423 455.711 145.037C453.393 144.779 450.883 144.972 449.402 145.487C447.084 146.196 446.505 146.067 438.523 142.977C430.411 139.758 430.025 139.694 427.901 140.531C424.939 141.818 423.394 143.942 424.36 145.681C425.39 147.676 422.622 149.028 421.077 147.161C420.691 146.711 419.017 146.131 417.343 145.938C415.476 145.745 413.996 145.166 413.352 144.393C411.549 142.14 408.331 140.337 406.078 140.337C404.726 140.273 403.245 139.629 401.829 138.471C399.769 136.732 399.769 136.668 400.67 134.479C401.829 131.711 400.863 127.784 398.803 127.141C397.065 126.561 392.945 126.754 389.791 127.591C388.374 127.913 384.512 128.492 381.229 128.814C374.92 129.394 373.439 129.909 370.8 132.291C369.319 133.642 368.74 133.771 364.813 133.449C360.822 133.127 360.436 132.934 360.629 131.711C360.822 130.231 362.818 129.072 366.744 128.106C369.641 127.398 375.049 122.827 374.341 121.669C373.568 120.381 376.851 115.746 379.491 114.459C382.452 112.914 383.16 112.141 382.645 110.596C382.13 108.922 385.284 107.828 388.117 108.729C390.048 109.309 390.628 109.18 393.074 107.506C396.808 104.867 398.159 104.996 399.704 108.086C401.249 111.047 404.082 113.557 407.944 115.36C410.519 116.583 413.931 119.802 413.931 120.961C413.931 121.282 413.352 122.248 412.579 123.149C411.421 124.63 410.97 124.823 408.524 124.501C404.211 123.857 404.211 125.274 408.524 127.141C410.519 128.042 412.258 128.75 412.386 128.75C412.515 128.75 412.644 127.849 412.644 126.819C412.644 125.402 412.966 124.887 413.803 124.887C414.446 124.887 415.476 124.051 416.056 122.956C416.957 121.411 417.086 120.767 416.506 119.673C415.412 117.742 416.571 116.712 418.759 117.677C420.111 118.321 420.369 118.257 420.369 117.42C420.369 116.905 419.017 115.875 417.343 115.167C415.605 114.459 413.996 113.429 413.738 112.914C413.481 112.399 412.708 112.012 412.064 112.012C410.906 112.012 408.653 109.824 406.335 106.412C404.661 104.03 404.597 103.129 405.949 101.648C406.979 100.489 407.108 100.618 408.974 103.386C410.004 104.996 411.807 106.927 412.901 107.764Z" fill="#2F4858"/>
<path d="M152.183 21.7587C151.796 22.0162 151.346 22.66 151.153 23.2394C150.895 23.8187 148.835 24.9775 146.582 25.8144L142.333 27.3594L143.556 28.9687C144.651 30.4494 144.844 30.4494 148.063 29.7412C149.93 29.2906 152.118 28.3894 153.02 27.6812C155.659 25.6212 155.852 26.1362 153.856 29.87C152.762 31.8012 151.925 33.5394 151.925 33.7969C151.925 33.99 152.826 34.505 153.856 34.8269C154.951 35.2131 155.788 35.9212 155.788 36.4362C155.788 37.595 157.268 37.595 159.521 36.4362C162.933 34.7625 171.753 34.1187 176.13 35.3419C177.74 35.7925 178.576 35.5994 180.186 34.6337C182.503 33.1531 182.503 33.2175 181.151 31.2862C180.508 30.2562 180.379 29.6125 180.83 29.2906C181.216 29.0975 181.538 27.7456 181.538 26.265C181.538 23.8187 181.473 23.69 179.864 24.0762C178.963 24.3337 177.546 25.2994 176.71 26.265C175.293 27.8744 175.165 27.9387 174.006 26.9087C173.362 26.3294 171.366 25.6212 169.564 25.4281C166.86 25.0419 166.088 24.6556 165.186 23.1106C164.092 21.3081 163.963 21.2437 158.491 21.2437C155.401 21.2437 152.569 21.5012 152.183 21.7587Z" fill="#2F4858"/>
<path d="M192.288 22.9819C192.031 23.175 191.838 23.9475 191.838 24.5913C191.838 25.8788 191.13 26.0719 190.1 25.0419C189.713 24.6557 189.07 24.5269 188.683 24.7844C188.233 25.0419 188.683 25.8788 189.906 27.1019C191.966 29.2263 192.675 29.2263 197.052 26.9732C198.597 26.2007 199.498 25.235 199.691 24.1407C200.013 22.5957 199.949 22.5313 196.344 22.5313C194.348 22.5313 192.481 22.7244 192.288 22.9819Z" fill="#2F4858"/>
<path d="M202.524 24.4625C201.687 25.5568 199.112 27.6168 196.923 29.0331C194.734 30.5137 192.803 32.2518 192.61 32.96C192.353 33.99 191.902 34.1831 190.228 33.8612C187.46 33.3462 183.469 35.02 183.469 36.6937C183.469 37.8525 183.018 37.9812 179.478 38.0456C173.426 38.1743 172.332 37.9812 170.851 36.6293C169.628 35.4706 169.242 35.4062 166.474 36.1787C164.864 36.6293 163.513 37.3375 163.513 37.7881C163.513 38.4318 161.903 38.625 156.946 38.5606C151.668 38.5606 150.638 38.3675 151.796 37.8525C154.564 36.5006 154.049 36.1787 144.779 34.1187C142.719 33.6681 140.338 33.475 139.436 33.7325C138.213 34.0543 137.763 33.9256 137.763 33.1531C137.763 32.3806 137.441 32.3162 136.024 32.8956C134.608 33.4106 134.093 33.3462 133.449 32.445C132.934 31.7368 132.291 31.5437 131.518 31.8656C128.814 32.96 120.574 34.4406 119.094 34.1187C118.193 33.9256 116.454 34.1187 115.231 34.5693C112.141 35.6637 109.695 35.5993 107.764 34.3762C106.734 33.6681 103.837 33.1531 99.2664 32.7668C90.3826 32.1231 82.2714 30.7068 80.7907 29.6125C79.9539 28.9687 70.8126 30.9 63.0876 33.3462C59.7401 34.4406 55.942 35.4706 54.7189 35.7281C50.5345 36.5006 50.1482 36.7581 50.5345 38.0456C50.7276 38.6893 51.0495 39.8481 51.2426 40.5562C51.5001 41.6506 51.307 41.8437 49.6332 41.8437C48.5389 41.8437 47.6376 41.5862 47.6376 41.2643C47.6376 40.9425 45.2557 41.2643 42.3588 42.1012C38.3032 43.1956 37.0157 43.8393 36.6295 44.9337C36.1788 46.0925 36.372 46.4143 37.6595 46.7362C38.5607 46.9293 40.4276 46.9937 41.8438 46.865C43.8395 46.6718 44.3545 46.865 44.097 47.5087C43.9038 48.0237 43.7751 48.6031 43.7751 48.925C43.7751 49.1825 42.4232 49.5687 40.7495 49.7618C32.5095 50.5987 25.9432 53.3668 23.6257 56.9075C21.8876 59.5468 22.2095 60.5768 24.527 60.0618L26.5226 59.6756L25.4282 61.4137C24.3982 62.8943 24.3982 63.0875 25.3638 62.7012C26.6513 62.1862 30.9001 62.9587 30.9001 63.6668C30.9001 64.1818 5.79385 74.0312 4.3776 74.0312C3.92697 74.0956 2.8326 74.4818 1.93135 74.9968C0.321971 75.8981 0.321971 75.8981 2.5751 75.5762C10.2357 74.3531 23.3682 70.555 27.9388 68.2375C30.707 66.8212 33.6682 65.6625 34.4407 65.6625C36.4363 65.6625 41.9726 63.86 43.3888 62.7656C44.4188 61.9931 44.4832 61.6712 43.7751 60.8343C43.067 59.9975 43.1957 59.8687 44.6763 59.8687C45.5776 59.8687 47.8307 59.2893 49.6976 58.5812C51.5001 57.8731 53.1095 57.4225 53.2382 57.5512C53.367 57.68 52.2726 58.5168 50.8564 59.4825C49.4401 60.3837 48.2814 61.285 48.2814 61.4137C48.2814 61.8643 56.5214 59.8687 59.6114 58.71C62.7014 57.4868 62.8945 57.4868 65.0189 58.5812C66.242 59.225 68.7526 59.9331 70.6195 60.1906C75.3832 60.8343 76.2201 62.315 75.7695 69.01L75.4476 74.0312H77.6364C79.6964 74.0312 79.7607 74.0956 79.117 75.7693C78.6664 76.8637 78.602 79.31 78.8595 82.0137L79.2457 86.4556L77.6364 86.005C75.1257 85.3612 75.1901 87.4856 77.7651 90.2537C79.5032 92.0562 79.8895 92.8287 79.3101 93.4725C78.9882 93.9231 78.0226 95.9187 77.2501 97.85C76.4776 99.7812 74.2889 103.129 72.422 105.317C70.4907 107.442 68.7526 110.081 68.4951 111.111C68.2376 112.141 67.3364 114.008 66.3707 115.231C64.4395 117.871 64.3107 119.609 65.212 128.299L65.9201 134.672L68.6239 136.539C71.7139 138.664 71.8426 138.921 72.4864 145.166C72.7439 147.612 73.3232 150.573 73.8382 151.796C74.6751 153.792 74.6107 154.049 73.6451 154.822C72.6795 155.53 72.6795 155.787 73.452 156.882C73.967 157.59 75.2545 158.942 76.3489 159.843C77.8939 161.131 78.2801 161.967 78.087 163.126C77.8295 164.285 78.3445 165.444 79.7607 167.182C80.8551 168.534 81.7564 169.95 81.7564 170.401C81.7564 170.851 82.0782 171.237 82.4001 171.237C83.752 171.237 83.8164 169.113 82.5932 166.474C81.8851 165.057 81.1126 162.933 80.8551 161.774C80.5976 160.68 79.4389 157.268 78.2157 154.242C76.6064 150.122 76.1557 148.127 76.4132 146.453C76.6064 145.23 76.8639 144.2 76.9926 144.2C77.057 144.2 77.8939 144.457 78.7307 144.779C80.0182 145.294 80.3401 145.938 80.662 148.771C80.9839 151.088 81.7564 153.212 83.3657 155.594C84.7176 157.59 85.6189 159.779 85.6189 160.937C85.6189 162.418 86.5845 164.027 89.4814 167.439C92.6357 171.109 93.3439 172.332 93.3439 174.199C93.3439 175.422 93.0864 176.967 92.7645 177.546C92.4426 178.126 92.4426 179.22 92.7001 179.992C93.3439 181.602 99.1376 186.044 100.618 186.044C101.198 186.044 101.906 186.43 102.163 186.945C102.936 188.232 111.819 192.546 113.815 192.61C114.781 192.61 116.648 192.417 117.999 192.159C120.317 191.709 120.574 191.773 123.536 194.863C126.561 198.017 127.269 198.339 135.059 200.399C136.99 200.914 137.891 201.558 138.149 202.588C138.342 203.361 139.05 204.455 139.758 205.099C140.402 205.678 140.981 206.901 140.981 207.738C140.981 209.734 147.548 215.914 149.865 216.107C150.766 216.171 152.118 216.879 152.955 217.652C154.693 219.326 156.753 218.875 156.238 216.944C155.852 215.463 157.912 213.403 159.328 213.982C159.843 214.176 160.487 214.884 160.68 215.463C160.873 216.107 161.453 217.394 161.968 218.36C163.062 220.42 163.191 229.304 162.096 231.299C161.71 232.072 160.873 233.102 160.165 233.552C159.521 234.003 159.006 234.969 159.006 235.677C159.006 236.385 158.363 237.222 157.59 237.608C155.53 238.509 152.955 245.204 153.792 247.393C154.114 248.294 154.758 249.196 155.079 249.453C155.53 249.711 155.208 250.612 154.114 252.028C152.569 254.024 152.569 254.346 153.277 256.985C153.728 258.53 154.886 260.59 155.852 261.684C156.818 262.714 158.363 265.225 159.328 267.156C160.294 269.087 161.903 271.856 162.869 273.272C163.834 274.688 165.959 278.486 167.568 281.769C170.529 287.627 170.594 287.692 177.482 292.584C181.28 295.352 184.563 297.67 184.628 297.799C184.756 297.863 185.4 301.082 186.108 304.944C186.881 309.708 187.267 315.116 187.331 322.068C187.331 329.536 187.589 333.205 188.426 336.102C189.327 339.449 189.391 341.059 188.812 348.14C188.233 355.414 188.297 356.573 189.263 358.569C189.842 359.792 190.55 362.431 190.808 364.362C191.387 369.577 192.417 372.731 193.511 372.731C194.155 372.731 194.348 372.281 194.026 371.122C193.769 370.221 193.898 369.512 194.284 369.512C194.67 369.512 195.249 370.993 195.636 372.731C196.537 376.851 196.537 376.787 195.443 376.401C194.091 375.886 192.739 377.624 193.64 378.718C194.091 379.233 194.219 380.585 193.962 381.937C193.704 383.804 193.833 384.319 194.541 384.319C196.151 384.319 197.181 385.992 196.408 387.409C195.893 388.439 196.408 389.597 199.305 393.846C201.301 396.743 204.713 400.734 206.901 402.859C210.699 406.335 211.279 406.721 217.266 408.266L223.574 409.876L225.763 408.652C226.922 407.944 227.888 407.172 227.888 406.914C227.888 406.657 226.278 405.949 224.411 405.305C221.708 404.532 220.227 403.502 218.167 401.185C214.819 397.387 214.24 395.906 215.399 394.554C215.914 393.975 216.171 393.074 215.914 392.494C215.721 391.915 216.171 390.37 217.008 389.018C217.974 387.473 218.231 386.572 217.716 386.379C217.33 386.25 216.3 385.606 215.399 384.898C213.468 383.353 213.017 379.426 214.691 378.782C215.334 378.525 215.656 377.495 215.656 375.95C215.656 374.598 216.107 373.182 216.622 372.731C217.974 371.637 217.845 370.8 216.364 370.8C215.077 370.8 213.081 368.547 213.081 367.131C213.081 366.616 213.918 366.358 215.334 366.422C218.103 366.551 219.712 365.264 219.261 363.332C218.618 360.951 219.454 359.856 221.772 359.856C225.892 359.856 227.888 359.084 228.853 357.217C230.269 354.513 230.076 351.037 228.531 350.2C227.823 349.814 227.051 348.784 226.858 347.947C226.664 347.046 226.021 346.337 225.441 346.337C224.669 346.337 224.604 346.144 225.184 345.565C225.763 344.986 226.214 345.114 227.179 345.951C227.888 346.595 229.626 347.239 231.106 347.432C233.231 347.754 234.003 347.561 235.291 346.337C236.9 344.792 240.119 337.582 240.119 335.394C240.119 334.557 240.569 334.106 241.342 334.106C243.659 334.106 245.591 329.857 245.719 324.45C245.784 321.811 245.848 319.429 245.848 319.236C245.977 318.334 255.054 312.798 258.079 311.768C263.229 310.159 265.354 306.876 266.834 298.442C267.478 294.837 268.058 289.752 268.122 287.048C268.251 282.349 268.379 281.962 271.148 278.036C272.757 275.782 275.139 271.662 276.362 268.894C278.679 263.937 278.679 263.937 277.649 261.041C276.877 258.723 276.233 257.886 274.495 257.178C273.272 256.663 270.568 254.732 268.508 252.929L264.774 249.517L259.367 249.389C256.406 249.26 253.444 249.131 252.865 249.131C252.157 249.067 251.706 248.552 251.706 247.651C251.642 246.556 250.805 245.848 247.715 244.432C244.174 242.822 243.659 242.758 242.694 243.659C241.213 245.011 240.763 244.882 240.763 243.144C240.763 242.243 240.054 241.342 238.831 240.634C237.222 239.732 236.964 239.217 237.286 237.93C237.544 236.836 237.286 236.127 236.385 235.484C235.677 235.033 234.904 233.488 234.647 232.072C234.003 228.724 233.874 228.467 230.591 225.699C228.145 223.703 227.308 223.381 224.476 223.381C220.291 223.381 214.691 220.613 213.789 218.231C213.468 217.266 212.18 216.107 210.699 215.334C209.283 214.626 207.867 213.532 207.545 212.759C207.223 212.051 206.193 211.086 205.228 210.635C203.296 209.734 202.974 208.897 204.262 208.317C204.648 208.124 203.618 208.124 201.816 208.317C200.078 208.511 198.404 208.961 198.211 209.283C198.018 209.669 196.859 209.476 195.507 208.897C194.219 208.382 192.159 207.931 190.872 207.931C188.168 207.931 185.078 206.515 184.499 204.97C184.177 204.069 183.726 204.326 181.859 206.386C180.636 207.738 179.671 209.605 179.606 210.442C179.606 211.729 179.478 211.858 178.641 211.15C177.933 210.571 177.804 210.12 178.319 209.605C178.641 209.283 178.963 208.189 178.963 207.159C178.963 206.193 179.413 205.163 179.928 204.906C180.443 204.584 180.636 204.004 180.379 203.618C179.993 203.039 179.091 203.361 177.031 204.712C175.486 205.742 173.298 206.772 172.203 207.03C170.079 207.481 168.727 208.897 168.663 210.635C168.663 211.279 167.826 212.695 166.86 213.854L164.993 215.849L162.676 213.982C160.809 212.566 159.779 212.18 157.912 212.373C156.56 212.437 154.951 212.824 154.243 213.21C151.603 214.626 147.419 210.12 147.419 205.936C147.419 204.712 147.869 201.751 148.513 199.305L149.543 194.927L147.998 193.704C146.775 192.739 145.294 192.481 140.853 192.481H135.252L136.926 188.426C137.827 186.237 139.114 182.825 139.823 180.894C140.595 178.962 141.432 177.031 141.689 176.645C142.076 176.13 141.368 175.808 139.308 175.486C135.252 174.971 132.999 176.194 131.84 179.735C130.939 182.439 130.81 182.503 126.239 183.726C120.832 185.142 119.351 184.692 116.969 180.958C114.137 176.452 113.944 174.134 116.004 168.083C116.969 165.057 117.806 161.581 117.806 160.229C117.806 157.976 118.064 157.719 123.793 153.921C128.686 150.702 130.231 149.994 132.419 149.994C133.9 149.994 135.316 150.251 135.509 150.637C136.218 151.732 138.599 151.346 140.144 149.865C142.076 148.062 149.801 147.547 150.444 149.157C150.702 149.865 151.41 149.994 152.891 149.736C154.5 149.414 155.208 149.672 156.431 150.959C157.719 152.376 157.912 152.891 157.333 154.371C156.56 156.302 157.204 159.586 158.813 161.967C161.388 165.959 163.191 161.646 162.547 152.955L162.161 147.097L165.251 143.749C166.924 141.882 170.401 139.114 172.847 137.505C175.358 135.896 178.448 133.514 179.799 132.162C181.859 130.102 182.181 129.394 181.924 127.591C181.731 126.111 181.859 125.531 182.568 125.531C183.083 125.531 183.984 124.566 184.563 123.342C185.143 122.119 185.915 121.282 186.366 121.411C186.816 121.604 188.039 120.639 189.134 119.287C190.55 117.42 192.031 116.519 194.606 115.682C196.473 115.102 198.533 114.587 199.048 114.587C200.399 114.587 201.751 112.914 200.914 112.334C199.884 111.755 202.781 107.635 204.713 106.927C205.614 106.605 208.768 105.446 211.794 104.352C217.137 102.421 217.201 102.421 215.399 103.901C212.888 105.961 213.468 107.699 216.3 106.862C217.459 106.541 218.682 105.961 219.133 105.639C219.519 105.317 221.193 104.674 222.866 104.287C224.54 103.837 226.343 102.936 226.986 102.292C227.566 101.648 228.596 101.069 229.304 101.069C230.141 101.069 230.463 100.618 230.463 99.4593C230.463 98.4937 230.076 97.85 229.561 97.85C229.046 97.85 228.081 98.5581 227.373 99.4593C225.634 101.648 221.901 101.712 220.484 99.5881C219.583 98.1718 219.648 97.85 221.193 95.0175C222.609 92.4425 222.738 91.7987 222.029 91.3481C220.549 90.3825 219.068 90.7043 214.498 92.7L210.184 94.6312L212.438 92.7C213.661 91.6056 215.077 90.7687 215.592 90.7687C216.107 90.7687 217.073 90.2537 217.781 89.61C218.746 88.7087 220.678 88.4512 227.501 88.1293C235.355 87.8075 236.192 87.6143 239.99 85.7475C242.179 84.5887 243.981 83.8806 243.981 84.2025C243.981 84.46 241.793 86.8418 239.153 89.4812C236.514 92.1206 234.325 94.5025 234.325 94.76C234.325 95.0818 236.192 95.275 238.445 95.275C240.763 95.275 242.823 95.5968 243.016 95.9831C243.273 96.3693 243.853 96.4981 244.368 96.305C244.818 96.1118 245.526 96.4337 245.848 97.0131C246.363 97.9787 246.556 97.9787 248.101 97.0131C249.453 96.1118 249.646 95.6612 249.131 94.3737C248.809 93.5368 248.745 92.2493 248.938 91.4768C249.196 90.3181 249.003 90.125 247.458 90.125C245.14 90.125 243.531 87.4212 245.011 86.1981C245.526 85.8118 245.719 85.2325 245.526 84.9106C245.333 84.5887 245.784 83.4943 246.492 82.4643C247.779 80.7262 247.779 80.4687 246.814 77.6362C246.234 75.9625 245.204 74.3531 244.368 73.9668C243.659 73.5806 242.243 72.4862 241.278 71.585C239.926 70.3618 239.668 69.7181 240.183 68.8168C240.827 67.5293 239.668 58.5812 238.767 58.5812C238.509 58.5812 237.479 59.2893 236.449 60.1262C235.484 60.9631 233.424 62.2506 232.008 62.9587C229.368 64.3106 229.304 64.3106 228.016 63.0875C226.536 61.7356 226.729 59.4181 228.403 58.1306C229.239 57.4225 229.111 57.2293 227.694 56.7143C226.729 56.3281 225.119 55.105 224.089 53.9462C222.738 52.4656 221.965 52.015 221.514 52.53C221.064 52.9162 219.39 53.045 217.201 52.7875C213.661 52.4012 213.596 52.4012 212.051 54.6543C211.214 55.9418 210.506 57.4225 210.506 57.9375C210.506 58.5168 209.348 60.1262 207.931 61.4781C205.807 63.5381 205.549 64.1175 206.322 64.5681C207.481 65.2118 207.545 66.3062 206.579 68.4306C205.807 70.1043 200.078 73.7737 197.631 74.16C196.279 74.3531 195.893 74.8681 195.121 78.28C194.348 81.6918 193.962 82.3356 191.838 83.5587L189.391 84.9106L189.005 83.43C188.812 82.5931 188.426 81.4343 188.233 80.855C187.975 80.0825 188.104 79.8893 188.812 80.2112C189.327 80.4043 189.971 80.2756 190.228 79.8893C190.421 79.5031 190.164 79.1812 189.649 79.1812C188.297 79.1812 188.361 78.0225 189.906 75.4475L191.194 73.3875H189.069C187.975 73.3231 185.851 72.8081 184.434 72.1C183.018 71.3918 181.473 70.8768 181.087 70.8125C180.636 70.8125 180.25 70.555 180.25 70.1687C180.25 69.0743 177.031 67.4006 175.036 67.465C173.298 67.5293 173.169 67.3362 173.169 64.9543C173.169 63.0231 172.911 62.4437 172.074 62.4437C169.693 62.4437 175.615 57.7443 182.246 54.3968C185.979 52.53 189.391 50.5343 189.842 49.955C190.357 49.3756 191.258 48.925 191.838 48.925C193.511 48.925 198.919 46.5431 201.301 44.6762C202.395 43.8393 203.554 43.1312 203.811 43.1312C204.648 43.1312 200.013 47.7018 198.597 48.2812C197.567 48.7318 197.503 48.8606 198.404 48.8606C198.983 48.925 199.563 49.3756 199.691 49.8906C199.884 50.7275 200.271 50.6631 202.395 49.5043C204.455 48.41 205.228 48.2812 206.451 48.8606C208.575 49.8262 210.506 49.7618 210.506 48.6675C210.506 48.2168 209.219 46.7362 207.609 45.4487C204.391 42.8093 203.811 41.4575 206.322 42.6162C207.545 43.1956 208.124 43.1956 208.704 42.6162C209.154 42.1656 210.056 41.8437 210.828 41.8437C212.566 41.8437 216.3 39.5262 216.3 38.4318C216.3 37.9168 216.879 37.0156 217.588 36.3718C218.489 35.535 218.682 34.9556 218.231 34.505C216.879 33.1531 217.716 32.8312 222.931 32.8312C227.179 32.8956 228.467 33.0887 229.69 34.1187C231.493 35.6637 231.042 36.6937 228.531 36.6937C226.6 36.6937 224.411 38.3031 224.991 39.3331C225.634 40.2987 228.081 39.9768 229.433 38.6893C231.428 36.8225 233.295 36.6937 233.553 38.4318C233.746 39.5906 233.166 40.17 230.849 41.3287C228.853 42.2943 227.888 43.1312 227.888 43.9681C227.888 45.1268 227.566 45.1912 224.025 44.8693C220.999 44.6118 219.841 44.7406 218.811 45.6418C217.652 46.6075 217.588 46.8006 218.424 47.5087C219.197 48.1525 219.905 48.0881 222.029 47.2512C224.604 46.2212 224.798 46.2212 226.021 47.38C226.793 48.0881 227.759 49.3756 228.209 50.2768C228.918 51.5643 230.141 52.2081 233.617 53.2381C238.638 54.7187 239.282 54.3325 236.836 51.2425C235.162 49.1181 236.128 49.1181 239.282 51.1781C241.599 52.7875 241.664 52.7875 242.114 51.5643C242.372 50.9206 243.144 50.0193 243.724 49.6975C244.947 49.0537 244.947 48.9893 241.728 44.6762C241.278 44.0325 241.471 43.4531 242.243 42.6806C243.338 41.5862 243.466 41.5862 245.14 43.6462C247.007 45.835 248.745 46.35 249.389 44.7406C249.582 44.2256 250.354 43.775 251.063 43.775C251.835 43.775 252.994 43.26 253.702 42.5518C254.989 41.3931 254.989 41.3931 252.608 39.3331C251.127 38.0456 249.775 37.3375 249.067 37.5306C247.264 37.9812 246.17 36.3075 247.458 35.0843C248.037 34.505 248.488 33.6681 248.488 33.2175C248.488 32.1231 246.363 30.2562 245.14 30.2562C244.561 30.2562 243.981 29.8056 243.724 29.2906C243.531 28.7756 242.694 28.325 241.793 28.325C240.827 28.325 239.604 27.5525 238.445 26.265C236.836 24.2693 236.385 24.1406 231.493 23.7543C225.892 23.3037 221.643 24.1406 219.454 26.1362C218.424 27.1018 218.231 27.1018 218.231 26.265C218.231 25.6856 218.875 24.7843 219.712 24.2693C221.064 23.2393 221.128 23.2393 219.776 23.2393C217.394 23.175 212.824 25.1062 210.378 27.2306C208.446 28.9687 208.124 29.5481 208.639 30.7068C209.026 31.8012 209.669 32.1875 211.214 32.1875C212.759 32.1875 213.146 32.3806 212.824 33.2175C212.631 33.7968 212.438 34.3118 212.438 34.4406C212.438 34.8912 206.129 39.14 204.841 39.5262C203.103 40.1056 202.846 38.3675 204.455 37.4662C205.871 36.6937 205.356 34.505 203.618 34.2475C202.524 34.0543 202.202 33.5393 202.009 31.0287C201.623 27.295 202.138 26.5868 205.549 26.0718C207.03 25.8143 209.412 24.9131 210.828 24.0762L213.403 22.5312H208.768C204.455 22.5312 204.069 22.66 202.524 24.4625Z" fill="#2F4858"/>
<path d="M329.986 43.0669L328.184 44.29L329.6 45.0625C330.372 45.4488 331.402 45.6419 331.917 45.4488C332.497 45.2557 332.819 45.5132 332.819 46.2857C332.819 46.9294 333.527 47.8307 334.428 48.2813C335.329 48.7319 336.037 49.44 336.037 49.7619C336.037 50.47 340.286 49.8263 344.985 48.41C349.105 47.1225 350.586 45.0625 348.526 43.4532C347.882 42.9382 346.595 42.6163 345.694 42.8094C339.707 43.8394 335.329 43.9038 333.784 42.8738C331.853 41.6507 332.239 41.5863 329.986 43.0669Z" fill="#2F4858"/>
<path d="M370.156 62.7656C369.705 63.345 368.933 63.6669 368.418 63.4737C367.903 63.2806 366.615 63.7312 365.521 64.5681C363.139 66.3062 362.109 68.6881 363.139 69.9112C363.719 70.6194 363.654 70.8125 363.01 70.8125C362.431 70.8769 362.624 71.3275 363.59 72.0356C364.362 72.7437 365.006 73.5806 365.006 73.9669C365.006 74.3531 365.714 74.675 366.551 74.675C367.71 74.675 368.289 75.19 368.74 76.5419C369.384 78.28 369.255 78.4087 367.517 78.795C365.779 79.1169 364.813 80.4687 366.294 80.4687C367.581 80.4687 366.873 81.6275 365.328 82.0137C363.268 82.5287 363.268 83.6875 365.264 83.6875C366.165 83.6875 367.066 83.945 367.259 84.3312C367.452 84.6531 367.259 84.975 366.744 84.975C365.907 84.975 363.075 87.55 363.075 88.3225C363.075 88.9019 366.873 87.7431 367.903 86.9062C368.354 86.52 370.735 86.3269 373.182 86.3912C378.01 86.52 379.49 86.005 378.911 84.5244C378.718 84.0094 378.975 83.1725 379.49 82.5931C380.842 81.3056 380.392 80.2112 378.46 79.825C377.624 79.6319 376.851 79.1169 376.722 78.6019C376.465 77.3787 372.731 71.9712 371.508 71.0056C370.607 70.3619 370.607 70.1687 371.637 69.0744C373.182 67.3362 372.989 66.3062 371.186 66.3062C369.319 66.3062 368.418 65.3406 369.77 64.8256C370.864 64.375 372.409 61.8 371.572 61.8C371.25 61.8 370.607 62.2506 370.156 62.7656Z" fill="#2F4858"/>
<path d="M357.153 74.4174C356.638 75.5762 356.058 75.9624 355.157 75.7049C353.483 75.3187 352.518 77.8937 353.934 79.0524C354.899 79.7606 354.835 79.9537 353.548 80.8549C350.071 83.3012 353.097 84.7818 357.989 83.0437C361.659 81.8206 362.431 80.9837 362.431 78.4087C362.431 77.4431 362.753 76.4774 363.075 76.2843C364.491 75.3831 363.719 73.5162 361.723 73.1299C358.504 72.4862 357.925 72.6793 357.153 74.4174Z" fill="#2F4858"/>
<path d="M691.13 165.379C689.778 167.954 689.843 169.886 691.388 172.139L692.611 174.07L693.254 172.332C694.478 169.242 694.606 167.761 694.091 165.83C693.383 163.191 692.289 163.062 691.13 165.379Z" fill="#2F4858"/>
<path d="M150.509 171.881C149.479 172.654 148.706 173.813 148.706 174.521C148.706 176.194 149.672 176.066 151.088 174.263C153.019 171.817 153.663 171.753 157.912 173.233C162.547 174.843 164.156 176.066 164.156 177.933C164.156 180.572 164.929 180.894 169.499 180.443C171.881 180.25 174.328 179.735 174.907 179.284C175.873 178.576 175.679 178.383 173.684 177.739C172.461 177.353 170.594 176.13 169.628 175.1C167.375 172.783 163.255 171.431 156.882 170.916C152.826 170.594 152.054 170.723 150.509 171.881Z" fill="#2F4858"/>
<path d="M178.641 181.022C179.091 183.018 178.383 183.984 176.13 184.241C172.911 184.563 173.298 186.044 176.645 186.044C178.255 186.044 179.606 186.301 179.606 186.687C179.606 187.717 181.666 187.396 182.503 186.237C183.018 185.593 184.563 185.078 186.945 184.885C188.941 184.756 190.55 184.37 190.55 184.048C190.55 183.791 189.585 182.825 188.426 181.924C186.945 180.765 185.593 180.314 183.791 180.379C182.375 180.443 180.572 180.25 179.735 179.992C178.448 179.542 178.319 179.671 178.641 181.022Z" fill="#2F4858"/>
<path d="M664.479 180.057C663.707 180.186 662.741 180.894 662.419 181.537C660.81 184.627 664.737 186.108 666.668 183.147C667.633 181.602 667.569 179.477 666.475 179.671C666.217 179.735 665.316 179.928 664.479 180.057Z" fill="#2F4858"/>
<path d="M695.765 183.533C695.057 183.919 694.606 184.949 694.606 186.237C694.606 187.396 694.155 189.134 693.64 190.099C692.482 192.353 693.061 195.507 694.735 196.408C695.636 196.859 695.894 197.503 695.636 198.468C695.443 199.305 695.829 200.464 696.537 201.301C698.082 203.232 698.469 203.168 698.469 200.85C698.469 198.983 698.533 198.983 700.207 199.756C701.172 200.142 703.039 201.687 704.327 203.103C706.387 205.292 706.58 205.743 705.743 206.258C705.099 206.644 704.134 206.451 702.975 205.743C701.945 205.163 700.979 204.713 700.786 204.713C699.885 204.713 700.464 207.996 701.559 209.09C702.202 209.734 702.91 210.764 703.168 211.343C703.619 212.502 704.713 212.695 706.451 212.051C707.803 211.536 707.739 210.571 706.387 209.09C705.421 207.996 705.421 207.803 706.194 207.288C707.674 206.322 708.254 206.837 709.155 209.927C709.992 212.566 709.927 212.824 708.64 213.789C707.932 214.369 706.773 214.691 706.129 214.562C704.713 214.176 702.653 216.236 702.074 218.618C701.687 220.356 701.752 220.42 702.653 219.261C703.168 218.553 704.262 217.974 705.164 217.845C706.451 217.716 706.773 218.038 707.095 219.841C707.352 221.257 708.254 222.544 709.412 223.381L711.344 224.733V222.416C711.344 220.549 711.601 220.163 712.502 220.291C713.21 220.42 713.532 220.163 713.339 219.519C713.275 219.004 713.082 217.073 713.017 215.206C712.953 212.759 712.567 211.472 711.472 210.313C710.7 209.476 710.056 207.996 710.056 207.03C710.056 204.455 709.026 202.91 706.837 202.459C705.164 202.073 704.97 201.816 705.292 200.271C705.614 198.726 705.421 198.404 703.812 197.76C702.846 197.374 701.301 196.988 700.4 196.859C699.048 196.666 698.79 196.279 698.597 194.284C698.469 192.996 698.662 191.323 699.048 190.679C699.499 189.842 699.499 188.619 699.048 186.945C698.147 183.662 697.181 182.696 695.765 183.533Z" fill="#2F4858"/>
<path d="M686.688 221.45C686.045 222.802 684.564 224.54 683.341 225.312C682.182 226.021 680.38 227.566 679.35 228.724C678.32 229.883 676.775 231.106 675.809 231.557C674.843 232.007 673.62 233.231 673.041 234.389C672.075 236.192 671.753 236.385 669.693 236.063C667.955 235.741 667.505 235.87 667.826 236.578C668.02 237.093 667.891 237.672 667.569 237.866C666.539 238.509 666.861 241.599 668.213 243.852C668.921 245.011 669.5 246.942 669.5 248.101C669.5 250.869 670.916 251.964 674.006 251.835C675.358 251.706 677.547 252.092 678.899 252.672C681.667 253.831 683.856 253.895 685.723 252.929C686.753 252.35 686.946 251.835 686.624 250.097C686.238 248.294 686.495 247.651 688.169 245.912C689.585 244.496 690.1 243.337 690.1 241.728C690.1 239.861 690.358 239.411 691.71 239.089C693.641 238.638 693.705 238.187 692.031 236.063C690.293 233.874 690.422 231.235 692.353 228.402C693.255 227.115 693.963 225.634 693.963 225.184C693.963 224.411 688.877 218.875 688.169 218.875C687.976 218.875 687.332 220.034 686.688 221.45Z" fill="#2F4858"/>
<path d="M629.33 224.476C628.493 225.313 629.008 226.343 630.811 227.373C631.905 227.952 633.45 229.561 634.351 230.978C635.253 232.394 636.54 233.746 637.248 234.003C637.956 234.196 638.986 235.162 639.501 236.128C642.012 240.956 643.943 245.333 645.038 248.681C646.325 252.736 649.93 256.728 654.05 258.53C656.175 259.496 656.303 259.496 657.462 258.079C658.17 257.243 658.492 256.084 658.299 255.247C658.106 254.474 658.492 252.801 659.2 251.513L660.488 249.131H658.878C657.977 249.131 657.269 248.809 657.269 248.488C657.269 248.101 656.046 246.685 654.63 245.269C652.57 243.273 652.119 242.501 652.634 241.857C653.213 241.213 652.763 240.505 650.638 238.767C649.158 237.544 646.84 235.87 645.553 235.033C644.201 234.261 642.591 232.716 642.012 231.621C641.175 230.269 639.115 228.853 635.317 226.858C632.227 225.377 629.588 224.283 629.33 224.476Z" fill="#2F4858"/>
<path d="M708.447 236.964C706.902 237.866 705.872 237.994 703.297 237.544C698.147 236.643 697.439 236.771 696.667 238.509C696.216 239.411 695.894 240.891 695.894 241.728C695.894 242.565 695.315 244.561 694.607 246.17C693.641 248.552 693.512 249.518 694.027 250.934C694.413 251.899 694.735 254.024 694.671 255.698C694.607 258.852 695.186 259.431 697.182 258.144C697.89 257.693 698.083 256.534 698.018 253.638C697.89 249.968 698.469 248.809 699.563 250.548C699.821 250.998 700.078 251.642 700.078 252.028C700.272 253.895 701.366 256.599 702.267 257.243C704.778 259.174 705.808 255.569 703.812 251.578C703.233 250.419 702.525 248.938 702.203 248.294C701.752 247.393 702.01 246.814 703.233 245.848C704.198 245.14 704.907 244.239 704.907 243.917C704.907 243.08 701.881 243.209 700.336 244.11C699.242 244.818 698.92 244.754 698.083 243.659C695.894 240.698 698.34 237.93 701.817 239.475C706.323 241.406 711.087 240.119 710.572 237.093C710.378 235.87 710.314 235.87 708.447 236.964Z" fill="#2F4858"/>
<path d="M726.343 243.144C725.506 243.273 724.863 243.659 724.863 243.917C724.863 244.625 727.051 246.556 727.888 246.556C728.789 246.556 730.978 249.067 730.463 249.517C729.691 250.29 731.944 253.637 733.103 253.444C734.583 253.251 742.952 256.148 744.304 257.307C745.913 258.723 746.557 263.294 745.205 264.066C743.66 264.967 743.982 265.869 745.784 265.869C746.686 265.869 748.874 266.577 750.613 267.478C755.054 269.731 756.535 269.538 759.689 266.512C761.17 265.096 762.586 263.937 762.908 263.937C763.166 263.937 764.775 265.547 766.449 267.478C768.702 270.117 770.311 271.276 772.629 272.049C774.303 272.564 776.041 272.95 776.491 272.821C776.878 272.692 775.461 270.761 773.337 268.508C769.024 264.131 767.929 262.006 769.989 262.006C770.633 262.006 771.213 261.62 771.213 261.105C771.213 259.882 768.187 257.5 766.642 257.5C765.869 257.5 765.419 257.049 765.419 256.277C765.419 255.569 764.453 254.281 763.359 253.444C759.303 250.419 747.716 245.269 744.948 245.269C744.433 245.269 742.823 246.621 741.278 248.294L738.51 251.256L736.193 248.745C734.326 246.749 733.939 245.912 734.261 244.432C734.648 242.694 734.583 242.694 731.171 242.758C729.304 242.822 727.116 243.016 726.343 243.144Z" fill="#2F4858"/>
<path d="M659.522 259.238C656.432 260.011 655.66 262.006 658.492 262.006C659.587 262.006 661.26 262.714 662.419 263.68C664.028 265.032 665.638 265.547 670.981 266.319C674.586 266.834 678.706 267.671 680.058 268.122C682.182 268.894 683.019 268.894 685.143 268.122C687.075 267.478 688.105 267.414 689.006 267.929C689.714 268.251 691.903 268.444 693.898 268.315C695.894 268.122 698.34 268.251 699.435 268.508C700.529 268.83 702.203 268.83 703.297 268.508C704.327 268.186 706.387 267.736 707.803 267.478L710.378 267.092L707.803 268.83C706.387 269.796 705.164 270.632 705.164 270.632C705.1 270.697 704.842 271.405 704.585 272.242C704.198 273.594 704.585 273.401 707.61 270.826C709.542 269.216 711.923 267.542 712.953 267.156C714.692 266.512 714.756 266.319 713.726 265.804C712.953 265.354 711.473 265.418 709.091 265.933C706.452 266.512 705.164 266.512 703.941 265.997C702.718 265.418 701.881 265.482 700.272 266.126C698.598 266.834 697.375 266.899 694.607 266.384C692.675 265.997 689.328 265.611 687.203 265.547C680.122 265.354 675.873 264.002 678.835 262.907C680.508 262.264 679.157 261.362 676.517 261.362C675.101 261.362 673.234 260.912 672.333 260.268C670.788 259.302 670.723 259.302 670.337 260.59C669.822 262.65 666.088 262.521 663.578 260.397C662.548 259.496 661.453 258.852 661.26 258.852C661.003 258.916 660.23 259.109 659.522 259.238Z" fill="#2F4858"/>
<path d="M727.631 276.169C728.017 277.842 727.824 278.1 726.279 278.422C725.313 278.679 724.09 279.066 723.575 279.323C722.352 279.967 719.713 284.602 720.099 285.31C720.292 285.567 720.356 285.825 720.228 285.825C720.099 285.825 719.069 286.082 717.91 286.404C715.979 286.984 715.721 286.855 715.078 285.439C713.661 282.413 709.735 282.799 709.284 286.018C709.155 287.048 708.705 287.37 707.675 287.241C706.838 287.112 706.194 287.37 706.194 287.756C706.194 288.142 705.164 289.43 703.941 290.717C702.138 292.52 701.623 292.777 701.301 291.941C700.98 291.104 700.722 291.168 699.692 292.327C698.984 293.099 698.469 294.258 698.469 294.902C698.469 297.477 694.735 300.438 689.07 302.498C686.045 303.592 683.148 304.494 682.633 304.494C682.053 304.494 680.315 305.459 678.641 306.554C676.968 307.712 675.165 308.678 674.65 308.678C674.006 308.678 673.62 309.515 673.491 311.382C673.363 312.862 672.912 314.407 672.397 314.794C671.818 315.309 671.625 316.21 671.882 317.433C672.14 318.849 671.946 319.557 671.11 320.201C670.144 320.909 670.08 321.231 670.788 322.454C671.238 323.356 671.56 326.961 671.625 331.467C671.753 337.582 671.56 339.449 670.53 341.702C669.886 343.183 668.921 344.406 668.406 344.406C666.796 344.406 667.505 346.917 669.5 347.947C672.14 349.299 673.363 349.17 677.418 346.981C680.508 345.372 681.796 345.05 685.594 345.05C688.105 345.05 690.1 344.792 690.1 344.406C690.1 342.346 703.104 338.291 709.541 338.419C715.142 338.484 720.614 342.668 719.326 345.951C718.618 347.754 720.936 348.011 722.481 346.209C724.219 344.213 727.438 342.217 727.438 343.119C727.438 343.441 726.601 344.535 725.506 345.501C723.189 347.561 722.931 348.848 725.185 347.367C727.18 346.016 727.373 346.08 726.987 347.625C726.794 348.333 725.506 349.363 724.155 350.007C721.515 351.166 721.065 351.745 722.545 352.324C723.06 352.517 724.09 352.002 724.927 351.101C726.987 348.912 727.631 349.17 727.245 352.067C726.794 355.543 728.532 358.247 731.751 359.148C735.098 360.114 736.772 360.049 737.738 358.891C738.768 357.667 739.669 357.667 739.669 358.826C739.669 359.277 740.055 360.049 740.506 360.436C741.214 360.951 742.051 360.629 744.24 358.955C745.913 357.667 748.102 356.637 749.583 356.444C750.935 356.251 752.222 355.865 752.48 355.543C754.54 352.389 763.745 341.896 764.968 341.252C767.608 339.836 771.856 331.853 773.788 324.772L775.526 318.27L773.723 315.759C772.758 314.343 771.728 312.412 771.535 311.446C771.277 310.416 770.505 309.257 769.796 308.742C769.024 308.163 768.445 306.94 768.316 305.652C768.187 304.301 767.286 302.562 765.741 300.76C763.23 297.863 761.556 293.55 761.556 289.945C761.556 286.597 760.462 284.409 759.046 284.859C758.016 285.181 757.758 284.795 757.372 282.477C755.634 271.534 754.218 271.598 752.286 282.928C751.192 289.237 748.488 294.837 746.621 294.837C745.27 294.837 742.18 293.035 741.407 291.812C741.15 291.361 739.669 289.816 738.06 288.336L735.291 285.696L737.158 282.864C738.253 281.319 739.347 279.902 739.733 279.709C740.441 279.194 740.441 278.679 739.733 277.521C739.283 276.812 738.768 276.812 736.965 277.456C735.034 278.164 734.455 278.1 732.137 276.877C730.656 276.169 729.305 275.267 729.047 274.881C728.146 273.465 727.309 274.302 727.631 276.169Z" fill="#2F4858"/>
<path d="M503.992 279.838C503.026 280.868 501.417 282.992 500.322 284.602C498.842 286.855 497.426 287.949 494.786 289.108C490.409 290.975 488.799 293.743 489.894 297.412C490.924 300.889 490.666 303.206 488.992 306.039C488.027 307.712 487.383 309.901 487.319 311.897C487.061 316.467 487.126 316.596 488.992 318.334C492.791 321.875 497.361 319.364 499.164 312.734C500.837 306.425 502.704 300.052 504.185 295.61C504.893 293.421 505.279 291.104 505.086 290.589C504.829 289.881 505.151 289.43 505.987 289.237C507.082 288.915 507.275 288.336 507.275 284.924C507.211 282.799 506.889 280.353 506.438 279.516L505.601 278.1L503.992 279.838Z" fill="#2F4858"/>
<path d="M814.73 349.427C814.537 350.715 814.344 352.582 814.344 353.547C814.344 356.316 812.413 359.727 810.353 360.564C808.679 361.272 808.615 361.401 809.516 362.431C810.868 363.912 810.739 364.749 809.065 365.907C807.263 367.195 806.619 367.195 806.619 365.972C806.619 365.135 806.362 365.071 805.267 365.65C804.559 366.036 803.658 366.229 803.207 366.101C802.757 365.972 801.276 366.744 799.86 367.839C798.444 368.997 795.354 370.929 793.036 372.216C790.719 373.504 786.148 376.143 782.865 378.203L776.878 381.872L778.874 383.096C780.869 384.319 780.934 384.319 783.315 383.096C784.667 382.387 787.435 380.585 789.56 378.976C791.684 377.431 794.324 375.886 795.482 375.692C796.705 375.371 797.735 374.727 797.929 373.954C798.186 373.311 799.28 372.281 800.375 371.701C801.534 371.122 803.079 370.092 803.851 369.384C804.688 368.611 806.297 368.032 807.714 367.967C810.546 367.839 815.954 364.491 816.597 362.431C816.79 361.723 817.563 361.144 818.207 361.144C819.43 361.144 823.357 357.667 823.357 356.509C823.357 356.122 822.842 356.058 822.262 356.316C820.138 357.152 819.172 356.959 818.529 355.479C818.207 354.706 817.692 354.062 817.37 354.062C817.048 354.062 817.048 352.775 817.241 351.23C817.627 348.784 817.499 348.269 816.404 347.689C815.31 347.11 815.117 347.303 814.73 349.427Z" fill="#2F4858"/>
<path d="M732.652 368.547C730.978 373.89 730.978 373.89 732.781 374.147C735.227 374.598 738.767 372.152 740.634 368.804L742.308 365.65L739.347 366.036C737.094 366.358 736.128 366.229 735.227 365.328C734.004 364.298 733.939 364.362 732.652 368.547Z" fill="#2F4858"/>
</svg>
