<svg width="30" height="31" viewBox="0 0 30 31" fill="none" xmlns="http://www.w3.org/2000/svg">
<g clip-path="url(#clip0)">
<path d="M26.8336 9.16496C26.8524 9.42814 26.8524 9.69137 26.8524 9.95455C26.8524 17.9819 20.7426 27.2312 9.57574 27.2312C6.13543 27.2312 2.93955 26.2348 0.251221 24.5053C0.740023 24.5617 1.20996 24.5805 1.71757 24.5805C4.55624 24.5805 7.16939 23.6218 9.25614 21.9862C6.58662 21.9298 4.34948 20.1814 3.57869 17.7751C3.95471 17.8315 4.33067 17.8691 4.7255 17.8691C5.27066 17.8691 5.81588 17.7939 6.32344 17.6623C3.54113 17.0983 1.45433 14.6544 1.45433 11.7029V11.6277C2.26268 12.0789 3.20273 12.3609 4.19902 12.3984C2.56347 11.3081 1.49195 9.44694 1.49195 7.3414C1.49195 6.21345 1.79268 5.17948 2.3191 4.27711C5.30822 7.96179 9.8013 10.3681 14.8395 10.6313C14.7455 10.1801 14.6891 9.71018 14.6891 9.24019C14.6891 5.89385 17.3962 3.16797 20.7613 3.16797C22.5096 3.16797 24.0888 3.90114 25.198 5.08551C26.5703 4.82233 27.8862 4.31472 29.0519 3.61916C28.6006 5.02915 27.6419 6.21351 26.3823 6.96543C27.6043 6.8339 28.7887 6.49544 29.879 6.0255C29.052 7.22861 28.0179 8.30014 26.8336 9.16496Z" fill="#FBFBFB" fill-opacity="0.7"/>
</g>
<defs>
<clipPath id="clip0">
<rect width="29.6279" height="29.6279" fill="white" transform="translate(0.251221 0.385742)"/>
</clipPath>
</defs>
</svg>
